<svg xmlns="http://www.w3.org/2000/svg" width="18" height="38" viewBox="0 0 18 38">
    <path data-name="Union 11" d="M-2058 28.9a8.861 8.861 0 0 1 1.845-5.426 12.43 12.43 0 0 0 .523-8.527A8.872 8.872 0 0 1-2058 8.9a8.9 8.9 0 0 1 8.9-8.9 8.9 8.9 0 0 1 8.9 8.9 8.9 8.9 0 0 1-.355 2.494h.111l-.2.277a8.871 8.871 0 0 1-1.408 2.659c-2.193 5.764 1.111 10.855 1.556 11.5l.008.012.029.041h-.274a8.9 8.9 0 0 1 .518 3 8.9 8.9 0 0 1-8.9 8.9A8.9 8.9 0 0 1-2058 28.9z" transform="translate(2058.1 .1)" style="fill:#fff;stroke:#dbdbdb;stroke-width:.2px"/>
</svg>
