<svg width="842" height="592" viewBox="0 0 842 592" fill="none" xmlns="http://www.w3.org/2000/svg">
<path d="M123.33 487.4H109.24C96.1901 487.4 85.5801 476.78 85.5801 463.74V449.65H99.6701C112.72 449.65 123.33 460.27 123.33 473.31V487.4Z" stroke="#2E735F" stroke-miterlimit="10"/>
<path d="M53 411.89H38.91C25.86 411.89 15.25 422.51 15.25 435.55V449.64H29.34C42.39 449.64 53 439.02 53 425.98V411.89Z" stroke="#2E735F" stroke-miterlimit="10"/>
<path d="M263.99 487.4H249.9C236.85 487.4 226.24 476.78 226.24 463.74V449.65H240.33C253.38 449.65 263.99 460.27 263.99 473.31V487.4Z" stroke="#2E735F" stroke-miterlimit="10"/>
<path d="M193.66 411.89H179.57C166.52 411.89 155.91 422.51 155.91 435.55V449.64H170C183.05 449.64 193.66 439.02 193.66 425.98V411.89Z" stroke="#2E735F" stroke-miterlimit="10"/>
<path d="M404.66 487.4H390.57C377.52 487.4 366.91 476.78 366.91 463.74V449.65H381C394.05 449.65 404.66 460.27 404.66 473.31V487.4Z" stroke="#2E735F" stroke-miterlimit="10"/>
<path d="M334.32 411.89H320.23C307.18 411.89 296.57 422.51 296.57 435.55V449.64H310.66C323.71 449.64 334.32 439.02 334.32 425.98V411.89Z" stroke="#2E735F" stroke-miterlimit="10"/>
<path d="M545.32 487.4H531.23C518.18 487.4 507.57 476.78 507.57 463.74V449.65H521.66C534.71 449.65 545.32 460.27 545.32 473.31V487.4Z" stroke="#2E735F" stroke-miterlimit="10"/>
<path d="M474.99 411.89H460.9C447.85 411.89 437.24 422.51 437.24 435.55V449.64H451.33C464.38 449.64 474.99 439.02 474.99 425.98V411.89Z" stroke="#2E735F" stroke-miterlimit="10"/>
<path d="M685.98 487.4H671.891C658.841 487.4 648.23 476.78 648.23 463.74V449.65H662.32C675.37 449.65 685.98 460.27 685.98 473.31V487.4Z" stroke="#2E735F" stroke-miterlimit="10"/>
<path d="M615.65 411.89H601.56C588.51 411.89 577.9 422.51 577.9 435.55V449.64H591.99C605.04 449.64 615.65 439.02 615.65 425.98V411.89Z" stroke="#2E735F" stroke-miterlimit="10"/>
<path d="M826.64 487.4H812.55C799.5 487.4 788.89 476.78 788.89 463.74V449.65H802.98C816.03 449.65 826.64 460.27 826.64 473.31V487.4Z" stroke="#2E735F" stroke-miterlimit="10"/>
<path d="M756.31 401.71H742.22C729.17 401.71 718.56 412.33 718.56 425.37V439.46H732.65C745.7 439.46 756.31 428.84 756.31 415.8V401.71Z" stroke="#2E735F" stroke-miterlimit="10"/>
<path d="M123.33 573.09H109.24C96.1901 573.09 85.5801 562.47 85.5801 549.43V535.34H99.6701C112.72 535.34 123.33 545.96 123.33 559V573.09Z" stroke="#2E735F" stroke-miterlimit="10"/>
<path d="M53 497.58H38.91C25.86 497.58 15.25 508.2 15.25 521.24V535.33H29.34C42.39 535.33 53 524.71 53 511.67V497.58Z" stroke="#2E735F" stroke-miterlimit="10"/>
<path d="M263.99 573.09H249.9C236.85 573.09 226.24 562.47 226.24 549.43V535.34H240.33C253.38 535.34 263.99 545.96 263.99 559V573.09Z" stroke="#2E735F" stroke-miterlimit="10"/>
<path d="M193.66 497.58H179.57C166.52 497.58 155.91 508.2 155.91 521.24V535.33H170C183.05 535.33 193.66 524.71 193.66 511.67V497.58Z" stroke="#2E735F" stroke-miterlimit="10"/>
<path d="M404.66 573.09H390.57C377.52 573.09 366.91 562.47 366.91 549.43V535.34H381C394.05 535.34 404.66 545.96 404.66 559V573.09Z" stroke="#2E735F" stroke-miterlimit="10"/>
<path d="M334.32 497.58H320.23C307.18 497.58 296.57 508.2 296.57 521.24V535.33H310.66C323.71 535.33 334.32 524.71 334.32 511.67V497.58Z" stroke="#2E735F" stroke-miterlimit="10"/>
<path d="M545.32 573.09H531.23C518.18 573.09 507.57 562.47 507.57 549.43V535.34H521.66C534.71 535.34 545.32 545.96 545.32 559V573.09Z" stroke="#2E735F" stroke-miterlimit="10"/>
<path d="M474.99 497.58H460.9C447.85 497.58 437.24 508.2 437.24 521.24V535.33H451.33C464.38 535.33 474.99 524.71 474.99 511.67V497.58Z" stroke="#2E735F" stroke-miterlimit="10"/>
<path d="M685.98 573.09H671.891C658.841 573.09 648.23 562.47 648.23 549.43V535.34H662.32C675.37 535.34 685.98 545.96 685.98 559V573.09Z" stroke="#2E735F" stroke-miterlimit="10"/>
<path d="M615.65 497.58H601.56C588.51 497.58 577.9 508.2 577.9 521.24V535.33H591.99C605.04 535.33 615.65 524.71 615.65 511.67V497.58Z" stroke="#2E735F" stroke-miterlimit="10"/>
<path d="M826.64 573.09H812.55C799.5 573.09 788.89 562.47 788.89 549.43V535.34H802.98C816.03 535.34 826.64 545.96 826.64 559V573.09Z" stroke="#2E735F" stroke-miterlimit="10"/>
<path d="M756.31 487.4H742.22C729.17 487.4 718.56 498.02 718.56 511.06V525.15H732.65C745.7 525.15 756.31 514.53 756.31 501.49V487.4Z" stroke="#2E735F" stroke-miterlimit="10"/>
<path d="M123.33 391.54H109.24C96.1901 391.54 85.5801 380.92 85.5801 367.88V353.79H99.6701C112.72 353.79 123.33 364.41 123.33 377.45V391.54Z" stroke="#2E735F" stroke-miterlimit="10"/>
<path d="M53 313.48H38.91C25.86 313.48 15.25 324.1 15.25 337.14V351.23H29.34C42.39 351.23 53 340.61 53 327.57V313.48Z" stroke="#2E735F" stroke-miterlimit="10"/>
<path d="M263.99 391.54H249.9C236.85 391.54 226.24 380.92 226.24 367.88V353.79H240.33C253.38 353.79 263.99 364.41 263.99 377.45V391.54Z" stroke="#2E735F" stroke-miterlimit="10"/>
<path d="M193.66 313.48H179.57C166.52 313.48 155.91 324.1 155.91 337.14V351.23H170C183.05 351.23 193.66 340.61 193.66 327.57V313.48Z" stroke="#2E735F" stroke-miterlimit="10"/>
<path d="M404.66 391.54H390.57C377.52 391.54 366.91 380.92 366.91 367.88V353.79H381C394.05 353.79 404.66 364.41 404.66 377.45V391.54Z" stroke="#2E735F" stroke-miterlimit="10"/>
<path d="M334.32 313.48H320.23C307.18 313.48 296.57 324.1 296.57 337.14V351.23H310.66C323.71 351.23 334.32 340.61 334.32 327.57V313.48Z" stroke="#2E735F" stroke-miterlimit="10"/>
<path d="M545.32 391.54H531.23C518.18 391.54 507.57 380.92 507.57 367.88V353.79H521.66C534.71 353.79 545.32 364.41 545.32 377.45V391.54Z" stroke="#2E735F" stroke-miterlimit="10"/>
<path d="M474.99 313.48H460.9C447.85 313.48 437.24 324.1 437.24 337.14V351.23H451.33C464.38 351.23 474.99 340.61 474.99 327.57V313.48Z" stroke="#2E735F" stroke-miterlimit="10"/>
<path d="M685.98 391.54H671.891C658.841 391.54 648.23 380.92 648.23 367.88V353.79H662.32C675.37 353.79 685.98 364.41 685.98 377.45V391.54Z" stroke="#2E735F" stroke-miterlimit="10"/>
<path d="M615.65 313.48H601.56C588.51 313.48 577.9 324.1 577.9 337.14V351.23H591.99C605.04 351.23 615.65 340.61 615.65 327.57V313.48Z" stroke="#2E735F" stroke-miterlimit="10"/>
<path d="M826.64 391.54H812.55C799.5 391.54 788.89 380.92 788.89 367.88V353.79H802.98C816.03 353.79 826.64 364.41 826.64 377.45V391.54Z" stroke="#2E735F" stroke-miterlimit="10"/>
<path d="M756.31 305.85H742.22C729.17 305.85 718.56 316.47 718.56 329.51V343.6H732.65C745.7 343.6 756.31 332.98 756.31 319.94V305.85Z" stroke="#2E735F" stroke-miterlimit="10"/>
<path d="M123.33 295.67H109.24C96.1901 295.67 85.5801 285.05 85.5801 272.01V257.92H99.6701C112.72 257.92 123.33 268.54 123.33 281.58V295.67Z" stroke="#2E735F" stroke-miterlimit="10"/>
<path d="M53 215.07H38.91C25.86 215.07 15.25 225.69 15.25 238.73V252.82H29.34C42.39 252.82 53 242.2 53 229.16V215.07Z" stroke="#2E735F" stroke-miterlimit="10"/>
<path d="M263.99 295.67H249.9C236.85 295.67 226.24 285.05 226.24 272.01V257.92H240.33C253.38 257.92 263.99 268.54 263.99 281.58V295.67Z" stroke="#2E735F" stroke-miterlimit="10"/>
<path d="M193.66 215.07H179.57C166.52 215.07 155.91 225.69 155.91 238.73V252.82H170C183.05 252.82 193.66 242.2 193.66 229.16V215.07Z" stroke="#2E735F" stroke-miterlimit="10"/>
<path d="M404.66 295.67H390.57C377.52 295.67 366.91 285.05 366.91 272.01V257.92H381C394.05 257.92 404.66 268.54 404.66 281.58V295.67Z" stroke="#2E735F" stroke-miterlimit="10"/>
<path d="M334.32 215.07H320.23C307.18 215.07 296.57 225.69 296.57 238.73V252.82H310.66C323.71 252.82 334.32 242.2 334.32 229.16V215.07Z" stroke="#2E735F" stroke-miterlimit="10"/>
<path d="M545.32 295.67H531.23C518.18 295.67 507.57 285.05 507.57 272.01V257.92H521.66C534.71 257.92 545.32 268.54 545.32 281.58V295.67Z" stroke="#2E735F" stroke-miterlimit="10"/>
<path d="M474.99 215.07H460.9C447.85 215.07 437.24 225.69 437.24 238.73V252.82H451.33C464.38 252.82 474.99 242.2 474.99 229.16V215.07Z" stroke="#2E735F" stroke-miterlimit="10"/>
<path d="M685.98 295.67H671.891C658.841 295.67 648.23 285.05 648.23 272.01V257.92H662.32C675.37 257.92 685.98 268.54 685.98 281.58V295.67Z" stroke="#2E735F" stroke-miterlimit="10"/>
<path d="M615.65 215.07H601.56C588.51 215.07 577.9 225.69 577.9 238.73V252.82H591.99C605.04 252.82 615.65 242.2 615.65 229.16V215.07Z" stroke="#2E735F" stroke-miterlimit="10"/>
<path d="M826.64 295.67H812.55C799.5 295.67 788.89 285.05 788.89 272.01V257.92H802.98C816.03 257.92 826.64 268.54 826.64 281.58V295.67Z" stroke="#2E735F" stroke-miterlimit="10"/>
<path d="M756.31 209.98H742.22C729.17 209.98 718.56 220.6 718.56 233.64V247.73H732.65C745.7 247.73 756.31 237.11 756.31 224.07V209.98Z" stroke="#2E735F" stroke-miterlimit="10"/>
<path d="M123.33 199.81H109.24C96.1901 199.81 85.5801 189.19 85.5801 176.15V162.06H99.6701C112.72 162.06 123.33 172.68 123.33 185.72V199.81Z" stroke="#2E735F" stroke-miterlimit="10"/>
<path d="M53 116.66H38.91C25.86 116.66 15.25 127.28 15.25 140.32V154.41H29.34C42.39 154.41 53 143.79 53 130.75V116.66Z" stroke="#2E735F" stroke-miterlimit="10"/>
<path d="M263.99 199.81H249.9C236.85 199.81 226.24 189.19 226.24 176.15V162.06H240.33C253.38 162.06 263.99 172.68 263.99 185.72V199.81Z" stroke="#2E735F" stroke-miterlimit="10"/>
<path d="M193.66 116.66H179.57C166.52 116.66 155.91 127.28 155.91 140.32V154.41H170C183.05 154.41 193.66 143.79 193.66 130.75V116.66Z" stroke="#2E735F" stroke-miterlimit="10"/>
<path d="M404.66 199.81H390.57C377.52 199.81 366.91 189.19 366.91 176.15V162.06H381C394.05 162.06 404.66 172.68 404.66 185.72V199.81Z" stroke="#2E735F" stroke-miterlimit="10"/>
<path d="M334.32 116.66H320.23C307.18 116.66 296.57 127.28 296.57 140.32V154.41H310.66C323.71 154.41 334.32 143.79 334.32 130.75V116.66Z" stroke="#2E735F" stroke-miterlimit="10"/>
<path d="M545.32 199.81H531.23C518.18 199.81 507.57 189.19 507.57 176.15V162.06H521.66C534.71 162.06 545.32 172.68 545.32 185.72V199.81Z" stroke="#2E735F" stroke-miterlimit="10"/>
<path d="M474.99 116.66H460.9C447.85 116.66 437.24 127.28 437.24 140.32V154.41H451.33C464.38 154.41 474.99 143.79 474.99 130.75V116.66Z" stroke="#2E735F" stroke-miterlimit="10"/>
<path d="M685.98 199.81H671.891C658.841 199.81 648.23 189.19 648.23 176.15V162.06H662.32C675.37 162.06 685.98 172.68 685.98 185.72V199.81Z" stroke="#2E735F" stroke-miterlimit="10"/>
<path d="M615.65 116.66H601.56C588.51 116.66 577.9 127.28 577.9 140.32V154.41H591.99C605.04 154.41 615.65 143.79 615.65 130.75V116.66Z" stroke="#2E735F" stroke-miterlimit="10"/>
<path d="M826.64 199.81H812.55C799.5 199.81 788.89 189.19 788.89 176.15V162.06H802.98C816.03 162.06 826.64 172.68 826.64 185.72V199.81Z" stroke="#2E735F" stroke-miterlimit="10"/>
<path d="M756.31 114.12H742.22C729.17 114.12 718.56 124.74 718.56 137.78V151.87H732.65C745.7 151.87 756.31 141.25 756.31 128.21V114.12Z" stroke="#2E735F" stroke-miterlimit="10"/>
<path d="M123.33 103.94H109.24C96.1901 103.94 85.5801 93.3204 85.5801 80.2804V66.1904H99.6701C112.72 66.1904 123.33 76.8104 123.33 89.8504V103.94Z" stroke="#2E735F" stroke-miterlimit="10"/>
<path d="M53 18.25H38.91C25.86 18.25 15.25 28.87 15.25 41.91V56H29.34C42.38 56.01 53 45.39 53 32.35V18.25Z" stroke="#2E735F" stroke-miterlimit="10"/>
<path d="M263.99 103.94H249.9C236.85 103.94 226.24 93.3204 226.24 80.2804V66.1904H240.33C253.38 66.1904 263.99 76.8104 263.99 89.8504V103.94Z" stroke="#2E735F" stroke-miterlimit="10"/>
<path d="M193.66 18.25H179.57C166.52 18.25 155.91 28.87 155.91 41.91V56H170C183.05 56 193.66 45.38 193.66 32.34V18.25Z" stroke="#2E735F" stroke-miterlimit="10"/>
<path d="M404.66 103.94H390.57C377.52 103.94 366.91 93.3204 366.91 80.2804V66.1904H381C394.05 66.1904 404.66 76.8104 404.66 89.8504V103.94Z" stroke="#2E735F" stroke-miterlimit="10"/>
<path d="M334.32 18.25H320.23C307.18 18.25 296.57 28.87 296.57 41.91V56H310.66C323.71 56 334.32 45.38 334.32 32.34V18.25Z" stroke="#2E735F" stroke-miterlimit="10"/>
<path d="M545.32 103.94H531.23C518.18 103.94 507.57 93.3204 507.57 80.2804V66.1904H521.66C534.71 66.1904 545.32 76.8104 545.32 89.8504V103.94Z" stroke="#2E735F" stroke-miterlimit="10"/>
<path d="M474.99 18.25H460.9C447.85 18.25 437.24 28.87 437.24 41.91V56H451.33C464.38 56 474.99 45.38 474.99 32.34V18.25Z" stroke="#2E735F" stroke-miterlimit="10"/>
<path d="M685.98 103.94H671.891C658.841 103.94 648.23 93.3204 648.23 80.2804V66.1904H662.32C675.37 66.1904 685.98 76.8104 685.98 89.8504V103.94Z" stroke="#2E735F" stroke-miterlimit="10"/>
<path d="M615.65 18.25H601.56C588.51 18.25 577.9 28.87 577.9 41.91V56H591.99C605.04 56 615.65 45.38 615.65 32.34V18.25Z" stroke="#2E735F" stroke-miterlimit="10"/>
<path d="M826.64 103.94H812.55C799.5 103.94 788.89 93.3204 788.89 80.2804V66.1904H802.98C816.03 66.1904 826.64 76.8104 826.64 89.8504V103.94Z" stroke="#2E735F" stroke-miterlimit="10"/>
<path d="M756.31 18.25H742.22C729.17 18.25 718.56 28.87 718.56 41.91V56H732.65C745.7 56 756.31 45.38 756.31 32.34V18.25Z" stroke="#2E735F" stroke-miterlimit="10"/>
</svg>
