<svg width="15" height="14" viewBox="0 0 15 14" fill="none" xmlns="http://www.w3.org/2000/svg">
<path d="M7.50016 0.270752C3.82016 0.270752 0.833496 3.25742 0.833496 6.93742C0.833496 10.6174 3.82016 13.6041 7.50016 13.6041C11.1802 13.6041 14.1668 10.6174 14.1668 6.93742C14.1668 3.25742 11.1802 0.270752 7.50016 0.270752ZM7.50016 12.2708C4.56016 12.2708 2.16683 9.87742 2.16683 6.93742C2.16683 3.99742 4.56016 1.60409 7.50016 1.60409C10.4402 1.60409 12.8335 3.99742 12.8335 6.93742C12.8335 9.87742 10.4402 12.2708 7.50016 12.2708ZM3.8335 10.6041L8.84016 8.27742L11.1668 3.27075L6.16016 5.59742L3.8335 10.6041ZM7.50016 6.20409C7.90683 6.20409 8.2335 6.53075 8.2335 6.93742C8.2335 7.34409 7.90683 7.67075 7.50016 7.67075C7.0935 7.67075 6.76683 7.34409 6.76683 6.93742C6.76683 6.53075 7.0935 6.20409 7.50016 6.20409Z" fill="#707070"/>
</svg>
