<svg width="64" height="91" viewBox="0 0 64 91" fill="none" xmlns="http://www.w3.org/2000/svg">
<g clip-path="url(#clip0_777_2072)">
<path d="M54.8223 49.7503H45.4021C41.4398 49.7448 37.6414 48.1771 34.8399 45.3908C32.0383 42.6046 30.4623 38.8274 30.4575 34.8874V25.5307H39.8699C43.8325 25.5362 47.6311 27.1039 50.4331 29.89C53.2351 32.6761 54.8116 36.4534 54.8171 40.3936L54.8223 49.7503ZM33.0295 28.0882V34.8977C33.0336 38.1601 34.3388 41.2876 36.6587 43.5945C38.9786 45.9013 42.1239 47.1991 45.4048 47.2032H52.2504V40.3936C52.2462 37.1304 50.9404 34.002 48.6193 31.6951C46.2983 29.3881 43.1517 28.0909 39.8699 28.0882H33.0295Z" fill="url(#paint0_linear_777_2072)"/>
<path d="M18.0823 49.7503H8.66211V40.3936C8.66625 36.453 10.2424 32.6749 13.0446 29.8885C15.8469 27.102 19.6464 25.5348 23.6093 25.5307H33.0295V34.8977C33.0213 38.8362 31.4435 42.6108 28.6418 45.3947C25.8402 48.1786 22.0431 49.7448 18.0823 49.7503ZM11.2341 47.1928H18.0823C21.3629 47.188 24.5078 45.89 26.8276 43.5833C29.1474 41.2767 30.4527 38.1495 30.4575 34.8874V28.0882H23.6067C20.3261 28.0923 17.1811 29.3902 14.8616 31.6971C12.5421 34.004 11.2375 37.1315 11.2341 40.3936V47.1928Z" fill="url(#paint1_linear_777_2072)"/>
<path d="M39.8699 24.23H30.4575V14.8629C30.4617 10.9227 32.0374 7.14507 34.8391 4.3587C37.6408 1.57233 41.4396 0.00480127 45.4021 0L54.8249 0V9.36705C54.8194 13.3086 53.2418 17.087 50.4381 19.8734C47.6345 22.6598 43.8338 24.2265 39.8699 24.23ZM33.0217 21.6725H39.8699C43.1507 21.6684 46.296 20.3706 48.6159 18.0638C50.9359 15.7569 52.241 12.6294 52.2451 9.36705V2.55748H45.4021C42.1215 2.56159 38.9765 3.85946 36.657 6.16635C34.3375 8.47325 33.033 11.6008 33.0295 14.8629L33.0217 21.6725Z" fill="url(#paint2_linear_777_2072)"/>
<path d="M14.5928 18.5786V16.6301H22.4104C23.237 16.6301 24.03 16.9555 24.616 17.5353C25.202 18.115 25.5333 18.9019 25.5374 19.7239V21.6725H17.7198C16.8932 21.6725 16.1002 21.347 15.5142 20.7673C14.9282 20.1875 14.5969 19.4006 14.5928 18.5786Z" fill="url(#paint3_linear_777_2072)"/>
<path d="M39.3042 34.4858C39.3042 34.4858 47.9635 39.7977 54.8221 49.7607L39.3042 34.4858Z" fill="url(#paint4_linear_777_2072)"/>
<path d="M33.0295 21.6725H30.4575V30.6457H33.0295V21.6725Z" fill="url(#paint5_linear_777_2072)"/>
<path d="M24.7191 34.4858C24.7191 34.4858 16.0598 39.7977 9.20117 49.7503L24.7191 34.4858Z" fill="url(#paint6_linear_777_2072)"/>
<path d="M39.3823 15.9253C39.3823 15.9253 44.7243 7.31225 54.7569 0.49231L39.3823 15.9253Z" fill="url(#paint7_linear_777_2072)"/>
<path d="M63.3383 62.3666C63.3838 62.4065 63.4204 62.4555 63.4455 62.5105C63.4707 62.5654 63.4839 62.625 63.4842 62.6854V73.8481C63.4839 73.9088 63.4708 73.9688 63.4456 74.0242C63.4205 74.0795 63.3839 74.129 63.3383 74.1694C63.2457 74.2573 63.1222 74.3056 62.9943 74.3041H61.277C61.214 74.3051 61.1514 74.2937 61.0928 74.2706C61.0343 74.2474 60.9808 74.2131 60.9356 74.1694C60.8891 74.1296 60.8518 74.0803 60.8262 74.0248C60.8005 73.9694 60.7872 73.9091 60.7871 73.8481V62.6802C60.7872 62.6195 60.8006 62.5596 60.8262 62.5046C60.8519 62.4496 60.8892 62.4008 60.9356 62.3615C61.0267 62.2726 61.1494 62.2232 61.277 62.2241H62.9943C63.1233 62.225 63.2468 62.2762 63.3383 62.3666Z" fill="url(#paint8_linear_777_2072)"/>
<path d="M57.5896 66.4114C57.7808 65.9087 57.8805 65.3761 57.884 64.8386C57.8857 64.486 57.8276 64.1356 57.7121 63.8021C57.5983 63.476 57.3942 63.1886 57.1231 62.973C56.8039 62.7232 56.4368 62.5407 56.0443 62.4366C55.5016 62.2921 54.9408 62.2258 54.3792 62.2397H49.3003C49.2359 62.2396 49.1721 62.2527 49.113 62.2781C49.0538 62.3035 49.0005 62.3407 48.9564 62.3874C48.9094 62.4311 48.8721 62.4841 48.847 62.543C48.8219 62.6019 48.8094 62.6654 48.8104 62.7294V64.4344C48.8099 64.4983 48.8226 64.5616 48.8477 64.6205C48.8728 64.6793 48.9098 64.7324 48.9564 64.7764C49.001 64.8223 49.0545 64.8587 49.1135 64.8837C49.1726 64.9086 49.2361 64.9215 49.3003 64.9215H54.4C54.8586 64.9215 55.1818 65.0433 55.3563 65.2869C55.5345 65.5361 55.626 65.8363 55.6169 66.142C55.6151 66.4632 55.5533 66.7812 55.4345 67.08C55.3341 67.3652 55.1803 67.629 54.9811 67.8573H36.2632C36.5681 67.4153 36.815 66.9364 36.998 66.4322C37.1892 65.9294 37.2889 65.3968 37.2925 64.8593C37.2942 64.5067 37.2361 64.1563 37.1205 63.8229C37.0069 63.4974 36.8038 63.2101 36.5342 62.9937C36.2143 62.7449 35.8475 62.5625 35.4554 62.4573C34.9117 62.313 34.3501 62.2467 33.7876 62.2604H28.7036C28.1809 62.2594 27.6618 62.347 27.1687 62.5195C26.7859 62.6539 26.427 62.8481 26.1055 63.0948V62.7398C26.1079 62.6199 26.0773 62.5016 26.0169 62.3977C25.9981 62.3577 25.9693 62.3231 25.9333 62.2973C25.8973 62.2714 25.8552 62.2552 25.8111 62.25H24.7687C24.7246 62.2552 24.6825 62.2714 24.6465 62.2973C24.6105 62.3231 24.5817 62.3577 24.5629 62.3977C24.5014 62.5011 24.4707 62.6197 24.4743 62.7398V67.8366H5.58958V62.719C5.59059 62.6551 5.57814 62.5916 5.553 62.5327C5.52787 62.4738 5.49062 62.4207 5.44365 62.377C5.3995 62.3303 5.3462 62.2931 5.28704 62.2677C5.22788 62.2423 5.16411 62.2293 5.09967 62.2293H3.38762C3.2587 62.2339 3.13634 62.287 3.04537 62.3779C2.95439 62.4689 2.90161 62.5908 2.89772 62.719V70.1427C2.89772 70.8078 2.75527 71.2621 2.47036 71.5057C2.17123 71.7534 1.79107 71.8834 1.40195 71.871C1.27131 71.871 1.14078 71.8632 1.01107 71.8477C0.876907 71.831 0.743795 71.8068 0.612378 71.7752L0 74.0424C0.30852 74.1359 0.623924 74.2052 0.943322 74.2497C1.24822 74.2904 1.55556 74.3104 1.86319 74.3093C2.36801 74.3156 2.86996 74.2331 3.34593 74.0657C3.79116 73.9069 4.19402 73.649 4.52378 73.3117C4.8759 72.9414 5.14267 72.4993 5.30554 72.0161C5.46515 71.5313 5.55293 71.0259 5.56612 70.5159H57.3915C57.4558 70.5164 57.5195 70.5038 57.5787 70.4788C57.6378 70.4539 57.6912 70.4171 57.7355 70.3707C57.7816 70.3263 57.8183 70.2732 57.8434 70.2144C57.8684 70.1557 57.8814 70.0925 57.8814 70.0287V67.8366H56.8391C57.1494 67.3954 57.4016 66.9164 57.5896 66.4114ZM33.2274 67.8366H27.2339V66.7172C27.2339 66.0979 27.3928 65.6445 27.7107 65.3517C27.9875 65.0758 28.3613 64.9178 28.7531 64.9112H33.8267C34.2853 64.9112 34.6085 65.0329 34.7831 65.2765C34.961 65.5258 35.0525 65.826 35.0436 66.1316C35.041 66.453 34.9783 66.771 34.8586 67.0696C34.7582 67.3549 34.6044 67.6186 34.4052 67.8469L33.2274 67.8366Z" fill="url(#paint9_linear_777_2072)"/>
<path d="M52.0209 60.3741C51.9746 60.3298 51.9377 60.2767 51.9127 60.2179C51.8876 60.1591 51.8748 60.0959 51.875 60.032V58.0835C51.8751 58.0196 51.888 57.9565 51.9131 57.8977C51.9381 57.839 51.9748 57.7858 52.0209 57.7414C52.0652 57.6951 52.1186 57.6583 52.1778 57.6334C52.2369 57.6084 52.3006 57.5958 52.3649 57.5963H54.3271C54.3914 57.5958 54.4551 57.6084 54.5143 57.6334C54.5734 57.6583 54.6268 57.6951 54.6711 57.7414C54.7172 57.7858 54.7539 57.839 54.7789 57.8977C54.804 57.9565 54.817 58.0196 54.817 58.0835V60.032C54.8144 60.1606 54.762 60.2833 54.6708 60.3745C54.5795 60.4657 54.4564 60.5185 54.3271 60.5218H52.3779C52.3113 60.5236 52.245 60.5114 52.1835 60.486C52.122 60.4605 52.0666 60.4224 52.0209 60.3741Z" fill="url(#paint10_linear_777_2072)"/>
<path d="M29.6026 60.3741C29.5556 60.3303 29.5181 60.2773 29.4925 60.2184C29.467 60.1596 29.4539 60.0961 29.4541 60.032V58.0835C29.4541 58.0194 29.4672 57.956 29.4928 57.8972C29.5183 57.8384 29.5557 57.7854 29.6026 57.7415C29.6462 57.6949 29.6991 57.658 29.7579 57.633C29.8167 57.608 29.8801 57.5955 29.944 57.5964H31.9062C31.9705 57.5958 32.0342 57.6084 32.0934 57.6334C32.1525 57.6583 32.2059 57.6951 32.2502 57.7415C32.2963 57.7859 32.333 57.839 32.358 57.8978C32.3831 57.9565 32.3961 58.0197 32.3961 58.0835V60.032C32.3935 60.1607 32.3411 60.2833 32.2499 60.3745C32.1586 60.4657 32.0355 60.5185 31.9062 60.5218H29.944C29.8799 60.5221 29.8164 60.5091 29.7577 60.4837C29.6989 60.4583 29.6461 60.4209 29.6026 60.3741Z" fill="url(#paint11_linear_777_2072)"/>
<path d="M34.3402 80.0151C33.5585 80.0151 31.122 79.9917 30.9917 79.9917C30.6033 79.9787 30.2237 80.1088 29.9259 80.3571C29.6392 80.6007 29.4959 81.0541 29.4959 81.7226V90.0144C29.4885 90.1411 29.4345 90.2608 29.3442 90.3506C29.2538 90.4404 29.1335 90.4941 29.006 90.5015H27.2888C27.1599 90.4982 27.0372 90.4458 26.946 90.3552C26.8548 90.2645 26.8021 90.1425 26.7989 90.0144V81.7226C26.7841 81.0851 26.8793 80.4497 27.0803 79.844C27.2442 79.3613 27.5109 78.9194 27.862 78.5485C28.1918 78.2112 28.5947 77.9533 29.0399 77.7944C29.5159 77.6271 30.0178 77.5446 30.5226 77.5509C30.8327 77.5509 34.8197 77.569 35.1194 77.6105C35.2399 77.6287 35.3552 77.6722 35.4576 77.7381C35.56 77.804 35.6471 77.8908 35.7131 77.9928C35.7792 78.0947 35.8227 78.2094 35.8407 78.3294C35.8587 78.4493 35.8509 78.5717 35.8177 78.6884L35.6327 79.375C35.5828 79.5629 35.4703 79.7284 35.3137 79.8446C35.1571 79.9609 34.9655 80.0209 34.7702 80.0151H34.3402Z" fill="url(#paint12_linear_777_2072)"/>
<path d="M7.65062 87.9492C8.04671 87.8533 8.51056 87.8041 11.0382 87.8041H63.4838C62.0298 87.8041 62.4936 87.8533 62.8897 87.9492C63.2858 88.0451 63.4838 88.1617 63.4838 88.2912V89.9988C63.4838 90.1283 63.2858 90.2424 62.8897 90.3408C62.4936 90.4367 62.0298 90.4859 63.4838 90.4859H11.0252C8.51056 90.4859 8.04671 90.4367 7.63759 90.3408C7.22847 90.245 7.04346 90.1283 7.04346 89.9988V88.2912C7.05214 88.1634 7.25453 88.0494 7.65062 87.9492Z" fill="url(#paint13_linear_777_2072)"/>
<path d="M55.135 84.4148C55.3498 83.8953 55.6721 83.4265 56.081 83.0389C56.4671 82.6748 56.9262 82.3958 57.4282 82.2201C57.9306 82.0456 58.4595 81.958 58.9917 81.961C59.5476 81.9608 60.0993 82.0555 60.623 82.2409C61.1516 82.4271 61.6392 82.713 62.0588 83.083C62.4983 83.47 62.8531 83.9427 63.1011 84.4719C63.3728 85.077 63.5063 85.7345 63.492 86.3971V90.0066C63.49 90.1351 63.4377 90.2579 63.3463 90.3488C63.2549 90.4397 63.1314 90.4917 63.0021 90.4937H50.9891C50.8597 90.4911 50.7364 90.439 50.6447 90.3483C50.5529 90.2576 50.4999 90.1352 50.4966 90.0066V88.299C50.4963 88.2353 50.5093 88.1722 50.5349 88.1137C50.5605 88.0553 50.598 88.0028 50.6451 87.9596C50.6892 87.9128 50.7425 87.8755 50.8016 87.8501C50.8608 87.8247 50.9246 87.8117 50.9891 87.8119H54.7884V86.3893C54.7705 85.7148 54.8883 85.0435 55.135 84.4148ZM60.7871 87.8041V86.4385C60.8032 86.1872 60.7608 85.9357 60.6632 85.7033C60.5655 85.471 60.4154 85.2642 60.2243 85.0989C59.8841 84.8034 59.4486 84.6388 58.9969 84.6351C58.6053 84.6403 58.2313 84.7974 57.9546 85.073C57.6349 85.3649 57.4751 85.8201 57.4751 86.4385V87.8041H60.7871Z" fill="url(#paint14_linear_777_2072)"/>
<path d="M8.46919 84.4149C8.25445 83.8953 7.93216 83.4265 7.52326 83.0389C7.13709 82.6748 6.67802 82.3958 6.17603 82.2201C5.67357 82.0456 5.14474 81.958 4.61251 81.961C4.05666 81.9608 3.5049 82.0555 2.98124 82.2409C2.45312 82.4265 1.96634 82.7126 1.54802 83.083C1.11346 83.4709 0.763954 83.9437 0.521307 84.4719C0.249657 85.077 0.116168 85.7345 0.130428 86.3971V90.0066C0.128475 90.1306 0.175213 90.2505 0.260721 90.3408C0.30537 90.3867 0.358822 90.4232 0.417908 90.4481C0.476994 90.473 0.540512 90.4859 0.604695 90.486H12.6177C12.7471 90.4833 12.8704 90.4312 12.9621 90.3405C13.0539 90.2498 13.1069 90.1274 13.1102 89.9988V88.2912C13.1057 88.163 13.0522 88.0414 12.9608 87.9509C12.8693 87.8605 12.7467 87.808 12.6177 87.8041H8.82359V86.3893C8.84033 85.7142 8.71978 85.0426 8.46919 84.4149ZM2.81707 87.8041V86.4386C2.80196 86.1866 2.8456 85.9346 2.94459 85.7023C3.04359 85.4699 3.19526 85.2634 3.38776 85.0989C3.72795 84.8034 4.16339 84.6388 4.61512 84.6351C5.00648 84.6414 5.38015 84.7983 5.65746 85.073C5.97538 85.3649 6.13434 85.8201 6.13434 86.4386V87.8041H2.81707Z" fill="url(#paint15_linear_777_2072)"/>
<path d="M1.76409 80.3442C1.71798 80.2998 1.68131 80.2466 1.65624 80.1879C1.63118 80.1291 1.61823 80.066 1.61816 80.0021V78.051C1.62146 77.9228 1.67414 77.8008 1.7653 77.7102C1.85647 77.6195 1.97918 77.5671 2.10807 77.5638H4.07028C4.19917 77.5671 4.32187 77.6195 4.41304 77.7102C4.50421 77.8008 4.55689 77.9228 4.56018 78.051V80.0021C4.56012 80.066 4.54717 80.1291 4.5221 80.1879C4.49704 80.2466 4.46036 80.2998 4.41426 80.3442C4.36998 80.3905 4.3166 80.4273 4.25743 80.4522C4.19825 80.4772 4.13456 80.4898 4.07028 80.4893H2.10807C2.04379 80.4898 1.98009 80.4772 1.92092 80.4522C1.86175 80.4273 1.80837 80.3905 1.76409 80.3442Z" fill="url(#paint16_linear_777_2072)"/>
<path d="M5.25352 80.3442C5.20658 80.3003 5.16918 80.2473 5.14363 80.1884C5.11809 80.1296 5.10493 80.0662 5.10499 80.0021V78.051C5.10467 77.9872 5.11771 77.9241 5.14328 77.8657C5.16886 77.8073 5.2064 77.7548 5.25352 77.7115C5.29757 77.6647 5.35085 77.6275 5.41003 77.6021C5.46922 77.5767 5.53303 77.5636 5.59749 77.5638H7.5571C7.62154 77.5638 7.68531 77.5769 7.74447 77.6023C7.80363 77.6277 7.85693 77.6649 7.90108 77.7115C7.94785 77.7549 7.985 77.8075 8.01013 77.8659C8.03526 77.9244 8.04782 77.9874 8.04701 78.051V80.0021C8.04499 80.1307 7.99273 80.2534 7.90129 80.3444C7.80985 80.4353 7.68641 80.4873 7.5571 80.4893H5.59749C5.5332 80.49 5.46945 80.4774 5.41026 80.4525C5.35106 80.4275 5.2977 80.3906 5.25352 80.3442Z" fill="url(#paint17_linear_777_2072)"/>
<path d="M55.4347 79.7352C55.3877 79.6913 55.3503 79.6383 55.3248 79.5795C55.2992 79.5206 55.2861 79.4572 55.2861 79.3932V78.6625C55.29 78.5342 55.3428 78.4123 55.4338 78.3214C55.5248 78.2304 55.6471 78.1773 55.776 78.1727H62.52C62.6489 78.1773 62.7713 78.2304 62.8623 78.3214C62.9532 78.4123 63.006 78.5342 63.0099 78.6625V79.3932C63.0066 79.5213 62.9539 79.6433 62.8628 79.734C62.7716 79.8247 62.6489 79.877 62.52 79.8803H55.7656C55.7035 79.8791 55.6423 79.8657 55.5855 79.8407C55.5287 79.8158 55.4774 79.78 55.4347 79.7352Z" fill="url(#paint18_linear_777_2072)"/>
<path d="M61.0215 59.7315V59.0448C60.9844 58.6453 61.1081 58.2474 61.3655 57.9384C61.4985 57.8184 61.6546 57.7264 61.8243 57.6681C61.9941 57.6097 62.1739 57.5862 62.3531 57.5989H63.5283C63.5905 57.5974 63.6523 57.6089 63.7097 57.6325C63.7672 57.6562 63.819 57.6915 63.8619 57.7363C63.9064 57.7793 63.9416 57.8309 63.9653 57.8879C63.9891 57.945 64.0009 58.0062 64 58.0679V58.695C64.0003 58.7566 63.9883 58.8176 63.9647 58.8745C63.9411 58.9314 63.9064 58.9831 63.8625 59.0265C63.8186 59.0699 63.7664 59.1042 63.709 59.1274C63.6517 59.1505 63.5902 59.1621 63.5283 59.1614H62.6006V59.7315H63.5283C63.5912 59.7313 63.6534 59.7446 63.7107 59.7703C63.7675 59.7923 63.819 59.8258 63.8619 59.8688C63.9044 59.9126 63.9388 59.9634 63.9635 60.0191C63.9873 60.0775 63.9997 60.14 64 60.203V60.8353C64 60.8984 63.9876 60.9609 63.9635 61.0193C63.9389 61.0742 63.9044 61.1242 63.8619 61.167C63.8184 61.2099 63.7671 61.2442 63.7107 61.268C63.6532 61.293 63.591 61.3053 63.5283 61.3043H60.7453C60.6808 61.3058 60.6168 61.2935 60.5576 61.268C60.5024 61.2435 60.4521 61.2093 60.4091 61.167C60.3665 61.1248 60.3329 61.0746 60.3101 61.0193C60.284 60.9614 60.2706 60.8987 60.271 60.8353V60.203C60.2709 60.1397 60.2842 60.077 60.3101 60.0191C60.3328 59.963 60.3665 59.9119 60.4091 59.8688C60.4992 59.7816 60.6196 59.7324 60.7453 59.7315H61.0215Z" fill="url(#paint19_linear_777_2072)"/>
</g>
<defs>
<linearGradient id="paint0_linear_777_2072" x1="42.6399" y1="-6.55307" x2="42.6399" y2="123.819" gradientUnits="userSpaceOnUse">
<stop stop-color="#2E735F"/>
<stop offset="1" stop-color="#748C4F"/>
</linearGradient>
<linearGradient id="paint1_linear_777_2072" x1="1957.81" y1="-586.983" x2="1957.81" y2="11598.9" gradientUnits="userSpaceOnUse">
<stop stop-color="#2E735F"/>
<stop offset="1" stop-color="#748C4F"/>
</linearGradient>
<linearGradient id="paint2_linear_777_2072" x1="42.6399" y1="-6.55305" x2="42.6399" y2="123.819" gradientUnits="userSpaceOnUse">
<stop stop-color="#2E735F"/>
<stop offset="1" stop-color="#748C4F"/>
</linearGradient>
<linearGradient id="paint3_linear_777_2072" x1="857.548" y1="-110.892" x2="857.548" y2="2426.14" gradientUnits="userSpaceOnUse">
<stop stop-color="#2E735F"/>
<stop offset="1" stop-color="#748C4F"/>
</linearGradient>
<linearGradient id="paint4_linear_777_2072" x1="2841.84" y1="-351.816" x2="2841.84" y2="7333.59" gradientUnits="userSpaceOnUse">
<stop stop-color="#2E735F"/>
<stop offset="1" stop-color="#748C4F"/>
</linearGradient>
<linearGradient id="paint5_linear_777_2072" x1="343.752" y1="-205.26" x2="343.752" y2="4309.51" gradientUnits="userSpaceOnUse">
<stop stop-color="#2E735F"/>
<stop offset="1" stop-color="#748C4F"/>
</linearGradient>
<linearGradient id="paint6_linear_777_2072" x1="1019.26" y1="-351.554" x2="1019.26" y2="7328.65" gradientUnits="userSpaceOnUse">
<stop stop-color="#2E735F"/>
<stop offset="1" stop-color="#748C4F"/>
</linearGradient>
<linearGradient id="paint7_linear_777_2072" x1="2816.03" y1="-389.807" x2="2816.03" y2="7375.13" gradientUnits="userSpaceOnUse">
<stop stop-color="#2E735F"/>
<stop offset="1" stop-color="#748C4F"/>
</linearGradient>
<linearGradient id="paint8_linear_777_2072" x1="703.905" y1="-243.281" x2="703.905" y2="5834.69" gradientUnits="userSpaceOnUse">
<stop stop-color="#2E735F"/>
<stop offset="1" stop-color="#748C4F"/>
</linearGradient>
<linearGradient id="paint9_linear_777_2072" x1="6428.61" y1="-243.282" x2="6428.61" y2="5834.82" gradientUnits="userSpaceOnUse">
<stop stop-color="#2E735F"/>
<stop offset="1" stop-color="#748C4F"/>
</linearGradient>
<linearGradient id="paint10_linear_777_2072" x1="654.135" y1="-16.3928" x2="654.135" y2="1455.61" gradientUnits="userSpaceOnUse">
<stop stop-color="#2E735F"/>
<stop offset="1" stop-color="#748C4F"/>
</linearGradient>
<linearGradient id="paint11_linear_777_2072" x1="378.613" y1="-16.3887" x2="378.613" y2="1455.53" gradientUnits="userSpaceOnUse">
<stop stop-color="#2E735F"/>
<stop offset="1" stop-color="#748C4F"/>
</linearGradient>
<linearGradient id="paint12_linear_777_2072" x1="1115.21" y1="-249.979" x2="1115.21" y2="6266.16" gradientUnits="userSpaceOnUse">
<stop stop-color="#2E735F"/>
<stop offset="1" stop-color="#748C4F"/>
</linearGradient>
<linearGradient id="paint13_linear_777_2072" x1="7646.25" y1="19.98" x2="7646.25" y2="1369.33" gradientUnits="userSpaceOnUse">
<stop stop-color="#2E735F"/>
<stop offset="1" stop-color="#748C4F"/>
</linearGradient>
<linearGradient id="paint14_linear_777_2072" x1="2892.7" y1="-133.833" x2="2892.7" y2="4159.34" gradientUnits="userSpaceOnUse">
<stop stop-color="#2E735F"/>
<stop offset="1" stop-color="#748C4F"/>
</linearGradient>
<linearGradient id="paint15_linear_777_2072" x1="329.713" y1="-133.637" x2="329.713" y2="4155.64" gradientUnits="userSpaceOnUse">
<stop stop-color="#2E735F"/>
<stop offset="1" stop-color="#748C4F"/>
</linearGradient>
<linearGradient id="paint16_linear_777_2072" x1="36.4811" y1="3.57932" x2="36.4811" y2="1475.49" gradientUnits="userSpaceOnUse">
<stop stop-color="#2E735F"/>
<stop offset="1" stop-color="#748C4F"/>
</linearGradient>
<linearGradient id="paint17_linear_777_2072" x1="79.3626" y1="3.57913" x2="79.3626" y2="1475.49" gradientUnits="userSpaceOnUse">
<stop stop-color="#2E735F"/>
<stop offset="1" stop-color="#748C4F"/>
</linearGradient>
<linearGradient id="paint18_linear_777_2072" x1="1808.43" y1="34.9882" x2="1808.43" y2="894.137" gradientUnits="userSpaceOnUse">
<stop stop-color="#2E735F"/>
<stop offset="1" stop-color="#748C4F"/>
</linearGradient>
<linearGradient id="paint19_linear_777_2072" x1="949.459" y1="-36.201" x2="949.459" y2="1829.86" gradientUnits="userSpaceOnUse">
<stop stop-color="#2E735F"/>
<stop offset="1" stop-color="#748C4F"/>
</linearGradient>
<clipPath id="clip0_777_2072">
<rect width="64" height="91" fill="white"/>
</clipPath>
</defs>
</svg>
