<svg width="13" height="14" viewBox="0 0 13 14" fill="none" xmlns="http://www.w3.org/2000/svg">
<path d="M11.4532 7.84075C11.4799 7.62742 11.4999 7.41409 11.4999 7.18742C11.4999 6.96075 11.4799 6.74742 11.4532 6.53409L12.8599 5.43409C12.9866 5.33409 13.0199 5.15409 12.9399 5.00742L11.6066 2.70075C11.5466 2.59409 11.4332 2.53409 11.3132 2.53409C11.2732 2.53409 11.2332 2.54075 11.1999 2.55409L9.53989 3.22075C9.19323 2.95409 8.81989 2.73409 8.41323 2.56742L8.15989 0.800752C8.13989 0.640752 7.99989 0.520752 7.83323 0.520752H5.16656C4.99989 0.520752 4.85989 0.640752 4.83989 0.800752L4.58656 2.56742C4.17989 2.73409 3.80656 2.96075 3.45989 3.22075L1.79989 2.55409C1.75989 2.54075 1.71989 2.53409 1.67989 2.53409C1.56656 2.53409 1.45323 2.59409 1.39323 2.70075L0.0598929 5.00742C-0.0267737 5.15409 0.0132263 5.33409 0.139893 5.43409L1.54656 6.53409C1.51989 6.74742 1.49989 6.96742 1.49989 7.18742C1.49989 7.40742 1.51989 7.62742 1.54656 7.84075L0.139893 8.94075C0.0132263 9.04075 -0.0201071 9.22075 0.0598929 9.36742L1.39323 11.6741C1.45323 11.7808 1.56656 11.8408 1.68656 11.8408C1.72656 11.8408 1.76656 11.8341 1.79989 11.8208L3.45989 11.1541C3.80656 11.4208 4.17989 11.6408 4.58656 11.8074L4.83989 13.5741C4.85989 13.7341 4.99989 13.8541 5.16656 13.8541H7.83323C7.99989 13.8541 8.13989 13.7341 8.15989 13.5741L8.41323 11.8074C8.81989 11.6408 9.19323 11.4141 9.53989 11.1541L11.1999 11.8208C11.2399 11.8341 11.2799 11.8408 11.3199 11.8408C11.4332 11.8408 11.5466 11.7808 11.6066 11.6741L12.9399 9.36742C13.0199 9.22075 12.9866 9.04075 12.8599 8.94075L11.4532 7.84075ZM10.1332 6.70075C10.1599 6.90742 10.1666 7.04742 10.1666 7.18742C10.1666 7.32742 10.1532 7.47409 10.1332 7.67409L10.0399 8.42742L10.6332 8.89409L11.3532 9.45409L10.8866 10.2608L10.0399 9.92075L9.34656 9.64075L8.74656 10.0941C8.45989 10.3074 8.18656 10.4674 7.91323 10.5808L7.20656 10.8674L7.09989 11.6208L6.96656 12.5208H6.03323L5.90656 11.6208L5.79989 10.8674L5.09323 10.5808C4.80656 10.4608 4.53989 10.3074 4.27323 10.1074L3.66656 9.64075L2.95989 9.92742L2.11323 10.2674L1.64656 9.46075L2.36656 8.90075L2.95989 8.43409L2.86656 7.68075C2.84656 7.47409 2.83323 7.32075 2.83323 7.18742C2.83323 7.05409 2.84656 6.90075 2.86656 6.70075L2.95989 5.94742L2.36656 5.48075L1.64656 4.92075L2.11323 4.11409L2.95989 4.45409L3.65323 4.73409L4.25323 4.28075C4.53989 4.06742 4.81323 3.90742 5.08656 3.79409L5.79323 3.50742L5.89989 2.75409L6.03323 1.85409H6.95989L7.08656 2.75409L7.19323 3.50742L7.89989 3.79409C8.18656 3.91409 8.45323 4.06742 8.71989 4.26742L9.32656 4.73409L10.0332 4.44742L10.8799 4.10742L11.3466 4.91409L10.6332 5.48075L10.0399 5.94742L10.1332 6.70075ZM6.49989 4.52075C5.02656 4.52075 3.83323 5.71409 3.83323 7.18742C3.83323 8.66075 5.02656 9.85409 6.49989 9.85409C7.97323 9.85409 9.16656 8.66075 9.16656 7.18742C9.16656 5.71409 7.97323 4.52075 6.49989 4.52075ZM6.49989 8.52075C5.76656 8.52075 5.16656 7.92075 5.16656 7.18742C5.16656 6.45409 5.76656 5.85409 6.49989 5.85409C7.23323 5.85409 7.83323 6.45409 7.83323 7.18742C7.83323 7.92075 7.23323 8.52075 6.49989 8.52075Z" fill="#707070"/>
</svg>
