<svg id="ej21eezmbtu81" 
xmlns="http://www.w3.org/2000/svg"
 xmlns:xlink="http://www.w3.org/1999/xlink"
  viewBox="0 0 100 100" shape-rendering="geometricPrecision"
   text-rendering="geometricPrecision"><style><![CDATA[#ej21eezmbtu83_ts {animation: ej21eezmbtu83_ts__ts 2000ms linear infinite normal forwards}@keyframes ej21eezmbtu83_ts__ts { 0% {transform: translate(62.273676px,62.500370px) scale(1,1)} 25% {transform: translate(62.273676px,62.500370px) scale(0.900000,0.900000)} 50% {transform: translate(62.273676px,62.500370px) scale(1,1)} 75% {transform: translate(62.273676px,62.500370px) scale(0.900000,0.900000)} 100% {transform: translate(62.273676px,62.500370px) scale(1,1)} }#ej21eezmbtu84_ts {animation: ej21eezmbtu84_ts__ts 2000ms linear infinite normal forwards}@keyframes ej21eezmbtu84_ts__ts { 0% {transform: translate(62.499714px,62.499630px) scale(0.800000,0.800000)} 25% {transform: translate(62.499714px,62.499630px) scale(1,1)} 50% {transform: translate(62.499714px,62.499630px) scale(0.800000,0.800000)} 75% {transform: translate(62.499714px,62.499630px) scale(1,1)} 100% {transform: translate(62.499714px,62.499630px) scale(0.800000,0.800000)} }]]></style><g id="ej21eezmbtu82" transform="matrix(0.80000000000000 0 0 0.80000000000000 0.00000000000001 0.00000000000001)"><g id="ej21eezmbtu83_ts" transform="translate(62.273676,62.500370) scale(1,1)"><path id="ej21eezmbtu83" d="M47.189366,-9.528598C16.976083,-8.029560,-7.623990,16.442314,-9.285452,46.646594C-10.003681,59.702830,-6.498964,71.893319,-0.037887,82.015552L-7.322990,103.537033C-8.163406,106.021025,-5.792656,108.391771,-3.310148,107.549866L18.211377,100.264778C28.333631,106.725842,40.524145,110.230551,53.580408,109.512324C83.784751,107.850865,108.256675,83.250843,109.755717,53.037623C111.506585,17.720818,82.504754,-11.282443,47.189366,-9.528598Z" transform="translate(-50.000271,-50.000646)" fill="none" stroke="rgb(50,50,50)" stroke-width="3" stroke-miterlimit="10"/></g><g id="ej21eezmbtu84_ts" transform="translate(62.499714,62.499630) scale(0.800000,0.800000)"><g id="ej21eezmbtu84" transform="translate(-62.499714,-62.499630)"><path id="ej21eezmbtu85" d="M56.879376,78.113836L43.120538,78.113836C42.476705,78.113836,41.859242,77.858075,41.403984,77.402818C40.948726,76.947560,40.692964,76.330099,40.692964,75.686267L40.692964,43.313511C40.692964,41.973307,41.780331,40.885942,43.120538,40.885942L56.879376,40.885942C58.219583,40.885942,59.306950,41.973307,59.306950,43.313511L59.306950,75.686267C59.306950,77.026472,58.219583,78.113836,56.879376,78.113836Z" transform="matrix(1 0 0 1 12.49972910000000 19.49872634374992)" fill="none" stroke="rgb(118,164,189)" stroke-width="3" stroke-miterlimit="10"/><path id="ej21eezmbtu86" d="M49.999948,24.004006L49.999948,24.004006C43.788981,24.004006,38.753998,29.038979,38.753998,35.249933L38.753998,35.249933C38.753998,41.460887,43.788981,46.495860,49.999948,46.495860L49.999948,46.495860C56.210915,46.495860,61.245898,41.460887,61.245898,35.249933L61.245898,35.249933C61.245898,29.038979,56.210915,24.004006,49.999948,24.004006Z" transform="matrix(1 0 0 1 12.49976506250000 3.38269134374996)" fill="none" stroke="rgb(118,164,189)" stroke-width="3" stroke-miterlimit="10"/></g></g></g></svg>