<svg width="22" height="24" viewBox="0 0 22 24" fill="none" xmlns="http://www.w3.org/2000/svg">
<path d="M21.43 10.5188L12.42 1.43641C11.67 0.68038 10.35 0.6703 9.59 1.43641L0.590005 10.5087C-0.189995 11.295 -0.189995 12.5651 0.590005 13.3514L9.59 22.4237C9.98 22.8169 10.49 23.0084 11 23.0084C11.51 23.0084 12.02 22.8169 12.41 22.4237L21.4 13.3615C22.19 12.5954 22.2 11.3252 21.43 10.5188ZM11.01 21.0024L2.01 11.9301L11.01 2.85774L20.01 11.9301L11.01 21.0024ZM7 10.9321V14.9643H9V11.9402H13V14.4602L16.5 10.9321L13 7.40399V9.92408H8C7.45 9.92408 7 10.3777 7 10.9321Z" fill="#707070"/>
</svg>
