<svg width="48" height="48" viewBox="0 0 48 48" fill="none" xmlns="http://www.w3.org/2000/svg">
<circle cx="24" cy="24" r="24" fill="#DAF4E8"/>
<path d="M29.3335 14.6665L33.3335 18.6665L30.6668 19.9998L36.0002 25.3332L32.0002 26.6665L37.3335 31.9998H25.3335" stroke="#009F57" stroke-width="2.5" stroke-linecap="round" stroke-linejoin="round"/>
<path d="M28 36V32" stroke="#009F57" stroke-width="2.5" stroke-linecap="round" stroke-linejoin="round"/>
<path d="M18.6667 25.3332L16 22.6665" stroke="#009F57" stroke-width="2.5" stroke-linecap="round" stroke-linejoin="round"/>
<path d="M18.667 24.0002L21.3337 21.3335" stroke="#009F57" stroke-width="2.5" stroke-linecap="round" stroke-linejoin="round"/>
<path d="M18.667 35.9998V18.6665" stroke="#009F57" stroke-width="2.5" stroke-linecap="round" stroke-linejoin="round"/>
<path d="M15.7655 29.3266C15.1821 29.2924 14.6133 29.1309 14.0991 28.8533C13.5849 28.5757 13.1377 28.1888 12.7891 27.7198C12.4405 27.2508 12.1988 26.7111 12.0812 26.1387C11.9635 25.5663 11.9727 24.9751 12.1081 24.4066C11.6243 24.0044 11.2422 23.4936 10.9929 22.9158C10.7437 22.3381 10.6344 21.7096 10.6739 21.0816C10.7134 20.4536 10.9006 19.8438 11.2203 19.3019C11.5399 18.7599 11.983 18.301 12.5135 17.9626C12.0486 17.1368 11.8921 16.1728 12.0717 15.2423C12.2513 14.3119 12.7554 13.4754 13.4942 12.882C14.233 12.2885 15.1585 11.9766 16.1058 12.0019C17.0531 12.0272 17.9607 12.3879 18.6668 13.0199C19.3731 12.3889 20.2804 12.029 21.2271 12.0043C22.1739 11.9795 23.0987 12.2914 23.837 12.8846C24.5754 13.4778 25.0792 14.3137 25.259 15.2436C25.4388 16.1735 25.2828 17.137 24.8188 17.9626C25.3496 18.3007 25.793 18.7594 26.113 19.3013C26.433 19.8433 26.6204 20.4531 26.66 21.0812C26.6997 21.7093 26.5904 22.3379 26.3411 22.9158C26.0918 23.4936 25.7096 24.0044 25.2255 24.4066C25.3654 24.9943 25.3705 25.6061 25.2401 26.1961C25.1098 26.786 24.8476 27.3387 24.473 27.8128C24.0985 28.2869 23.6215 28.67 23.0777 28.9333C22.534 29.1966 21.9376 29.3334 21.3335 29.3333H16.0001L15.7655 29.3266Z" stroke="#009F57" stroke-width="2.5" stroke-linecap="round" stroke-linejoin="round"/>
</svg>
