<svg width="48" height="48" viewBox="0 0 48 48" fill="none" xmlns="http://www.w3.org/2000/svg">
<circle cx="24" cy="24" r="24" fill="#DAF4E8"/>
<g clip-path="url(#clip0_2041_17271)">
<path d="M24.5482 34.6668H11.2148V32.0002H18.8815C17.9082 28.2535 14.9615 25.3202 11.2148 24.3468C12.0682 24.1335 12.9615 24.0002 13.8815 24.0002C19.7748 24.0002 24.5482 28.7735 24.5482 34.6668ZM37.8815 24.3468C37.0282 24.1335 36.1348 24.0002 35.2148 24.0002C31.3082 24.0002 27.9082 26.1068 26.0415 29.2402C26.4282 30.1202 26.7482 31.0402 26.9348 32.0002C27.1082 32.8668 27.2015 33.7602 27.2015 34.6668H29.8682H37.8682V32.0002H30.2015C31.1882 28.2535 34.1348 25.3202 37.8815 24.3468ZM29.4015 22.6935C30.4415 19.9068 32.3748 17.5735 34.8548 16.0268C29.1348 16.2135 24.5482 20.8935 24.5482 26.6668C24.5482 26.6802 24.5482 26.6935 24.5482 26.6935C25.8148 25.0002 27.4815 23.6268 29.4015 22.6935ZM23.7748 19.8002C22.6548 16.8802 20.3882 14.5202 17.4815 13.3335C19.4015 15.8135 20.5482 18.9068 20.5482 22.2802C20.5482 22.5602 20.5082 22.8268 20.4948 23.0935C21.0682 23.4135 21.6015 23.7868 22.1215 24.1868C22.4015 22.6135 22.9882 21.1335 23.7748 19.8002Z" fill="#009F57"/>
</g>
<defs>
<clipPath id="clip0_2041_17271">
<rect width="32" height="32" fill="white" transform="translate(8 8)"/>
</clipPath>
</defs>
</svg>
