<svg width="48" height="48" viewBox="0 0 48 48" fill="none" xmlns="http://www.w3.org/2000/svg">
<circle cx="24" cy="24" r="24" fill="#DAF4E8"/>
<path d="M13.3333 19.9997H20C20 18.533 18.8 17.333 17.3333 17.333H13.3333C12.6 17.333 12 17.933 12 18.6663C12 19.3997 12.6 19.9997 13.3333 19.9997Z" fill="#009F57"/>
<path d="M37.3335 26.7464V18.6664C37.3335 17.1998 36.1335 15.9998 34.6668 15.9998H26.2802L24.8668 14.5864L26.7468 12.7064L25.8002 11.7598L21.0935 16.4664L22.0402 17.4131L23.9202 15.5331L25.3335 16.9464V19.9998C25.3335 21.4664 24.1335 22.6664 22.6668 22.6664H19.9468C19.6535 22.4531 19.3468 22.2664 19.0268 22.0931L18.4935 23.2798L17.8802 22.9998L18.4135 21.7998C17.6802 21.5064 16.8535 21.3331 16.0002 21.3331C15.2935 21.3331 14.6135 21.4798 13.9735 21.6798L14.4268 22.8931L13.8002 23.1331L13.3335 21.8931C11.9202 22.5064 10.7868 23.5998 10.0935 24.9731L11.2802 25.5064L11.0002 26.1198L9.80016 25.5864C9.50683 26.3198 9.3335 27.1464 9.3335 27.9998C9.3335 28.7064 9.48016 29.3864 9.68016 30.0264L10.8935 29.5731L11.1335 30.1998L9.8935 30.6664C10.5068 32.0798 11.6002 33.2131 12.9735 33.9064L13.5068 32.7198L14.1202 32.9998L13.5868 34.1998C14.3202 34.4931 15.1468 34.6664 16.0002 34.6664C16.7068 34.6664 17.3868 34.5198 18.0268 34.3198L17.5735 33.1064L18.2002 32.8664L18.6668 34.1064C20.0802 33.4931 21.2135 32.3998 21.9068 31.0264L20.7202 30.4931L21.0002 29.8798L22.2002 30.4131C22.3335 30.0664 22.4402 29.6931 22.5202 29.3198H29.4002C29.3735 29.5464 29.3335 29.7731 29.3335 29.9998C29.3335 32.5731 31.4268 34.6664 34.0002 34.6664C36.5735 34.6664 38.6668 32.5731 38.6668 29.9998C38.6668 28.7331 38.1602 27.5864 37.3335 26.7464ZM16.0002 31.9998C13.7868 31.9998 12.0002 30.2131 12.0002 27.9998C12.0002 25.7864 13.7868 23.9998 16.0002 23.9998C18.2135 23.9998 20.0002 25.7864 20.0002 27.9998C20.0002 30.2131 18.2135 31.9998 16.0002 31.9998ZM22.4935 26.6664C22.4402 26.4264 22.3868 26.1998 22.3202 25.9731L21.1068 26.4264L20.8668 25.7998L22.1068 25.3331H22.6668C25.6135 25.3331 28.0002 22.9464 28.0002 19.9998V18.6664H34.6668V25.3998C34.4535 25.3731 34.2268 25.3331 34.0002 25.3331C32.7335 25.3331 31.5868 25.8398 30.7468 26.6664H22.4935ZM34.0002 31.9998C32.8935 31.9998 32.0002 31.1064 32.0002 29.9998C32.0002 28.8931 32.8935 27.9998 34.0002 27.9998C35.1068 27.9998 36.0002 28.8931 36.0002 29.9998C36.0002 31.1064 35.1068 31.9998 34.0002 31.9998Z" fill="#009F57"/>
</svg>
