<svg width="14" height="11" viewBox="0 0 14 11" fill="none" xmlns="http://www.w3.org/2000/svg">
<path d="M6.66667 10.6667H0V9.33333H3.83333C3.34667 7.46 1.87333 5.99333 0 5.50667C0.426667 5.4 0.873334 5.33333 1.33333 5.33333C4.28 5.33333 6.66667 7.72 6.66667 10.6667ZM13.3333 5.50667C12.9067 5.4 12.46 5.33333 12 5.33333C10.0467 5.33333 8.34667 6.38667 7.41333 7.95334C7.60667 8.39334 7.76667 8.85334 7.86 9.33333C7.94667 9.76667 7.99333 10.2133 7.99333 10.6667H9.32667H13.3267V9.33333H9.49333C9.98667 7.46 11.46 5.99333 13.3333 5.50667ZM9.09334 4.68C9.61334 3.28667 10.58 2.12 11.82 1.34667C8.96 1.44 6.66667 3.78 6.66667 6.66667C6.66667 6.67333 6.66667 6.68 6.66667 6.68C7.3 5.83333 8.13334 5.14667 9.09334 4.68ZM6.28 3.23333C5.72 1.77333 4.58667 0.593333 3.13333 0C4.09333 1.24 4.66667 2.78667 4.66667 4.47333C4.66667 4.61333 4.64667 4.74667 4.64 4.88C4.92667 5.04 5.19333 5.22667 5.45333 5.42667C5.59333 4.64 5.88667 3.9 6.28 3.23333Z" fill="#707070"/>
</svg>
