<svg width="16" height="14" viewBox="0 0 16 14" fill="#fff" xmlns="http://www.w3.org/2000/svg">
<path d="M10.6666 2.33325L12.6666 4.33325L11.3333 4.99992L14 7.66659L12 8.33325L14.6666 10.9999H8.66663" stroke="#707070" stroke-width="1.3" stroke-linecap="round" stroke-linejoin="round"/>
<path d="M10 13V11" stroke="#707070" stroke-width="1.3" stroke-linecap="round" stroke-linejoin="round"/>
<path d="M5.33333 7.66659L4 6.33325" stroke="#707070" stroke-width="1.3" stroke-linecap="round" stroke-linejoin="round"/>
<path d="M5.33337 7.00008L6.66671 5.66675" stroke="#707070" stroke-width="1.3" stroke-linecap="round" stroke-linejoin="round"/>
<path d="M5.33325 12.9999V4.33325" stroke="#707070" stroke-width="1.3" stroke-linecap="round" stroke-linejoin="round"/>
<path d="M3.88262 9.6633C3.59093 9.64622 3.30653 9.56544 3.04942 9.42663C2.79231 9.28783 2.56873 9.09438 2.39442 8.85988C2.22011 8.62539 2.09929 8.35555 2.04047 8.06935C1.98165 7.78314 1.98625 7.48753 2.05395 7.2033C1.81201 7.00219 1.62096 6.7468 1.49634 6.45791C1.37173 6.16903 1.31708 5.85481 1.33683 5.54081C1.35658 5.22682 1.45018 4.92192 1.61001 4.65093C1.76983 4.37994 1.99138 4.1505 2.25662 3.98129C2.0242 3.5684 1.94592 3.0864 2.03573 2.62117C2.12553 2.15594 2.37759 1.7377 2.747 1.44098C3.1164 1.14426 3.57915 0.988323 4.0528 1.00096C4.52644 1.01359 4.98022 1.19397 5.33329 1.50996C5.68643 1.19447 6.14006 1.01452 6.61344 1.00213C7.08682 0.989741 7.54924 1.14572 7.9184 1.44231C8.28756 1.7389 8.5395 2.15686 8.62939 2.6218C8.71928 3.08673 8.64129 3.56848 8.40929 3.98129C8.67469 4.15035 8.8964 4.3797 9.05638 4.65067C9.21636 4.92164 9.31007 5.22657 9.32989 5.54061C9.34971 5.85466 9.29507 6.16895 9.17043 6.45788C9.04578 6.74681 8.85466 7.00221 8.61262 7.2033C8.6826 7.49716 8.68511 7.80306 8.61995 8.09803C8.55479 8.393 8.42366 8.66937 8.2364 8.90641C8.04914 9.14345 7.81062 9.33499 7.53875 9.46666C7.26687 9.59832 6.9687 9.66669 6.66662 9.66663H3.99995L3.88262 9.6633Z" stroke="#fff" stroke-width="1.3" stroke-linecap="round" stroke-linejoin="round"/>
</svg>
