<svg width="15" height="12" viewBox="0 0 15 12" fill="none" xmlns="http://www.w3.org/2000/svg">
<path d="M14 7.49333V3.45333C14 2.72 13.4 2.12 12.6667 2.12H8.47333L7.76667 1.41333L8.70667 0.473333L8.23333 0L5.88 2.35333L6.35333 2.82667L7.29333 1.88667L8 2.59333V4.12C8 4.85333 7.4 5.45333 6.66667 5.45333H5.30667C5.16 5.34667 5.00667 5.25333 4.84667 5.16667L4.58 5.76L4.27333 5.62L4.54 5.02C4.17333 4.87333 3.76 4.78667 3.33333 4.78667C2.98 4.78667 2.64 4.86 2.32 4.96L2.54667 5.56667L2.23333 5.68667L2 5.06667C1.29333 5.37333 0.726667 5.92 0.38 6.60667L0.973333 6.87333L0.833333 7.18L0.233333 6.91333C0.0866667 7.28 0 7.69333 0 8.12C0 8.47333 0.0733333 8.81333 0.173333 9.13333L0.78 8.90667L0.9 9.22L0.28 9.45333C0.586667 10.16 1.13333 10.7267 1.82 11.0733L2.08667 10.48L2.39333 10.62L2.12667 11.22C2.49333 11.3667 2.90667 11.4533 3.33333 11.4533C3.68667 11.4533 4.02667 11.38 4.34667 11.28L4.12 10.6733L4.43333 10.5533L4.66667 11.1733C5.37333 10.8667 5.94 10.32 6.28667 9.63333L5.69333 9.36667L5.83333 9.06L6.43333 9.32667C6.5 9.15333 6.55333 8.96667 6.59333 8.78H10.0333C10.02 8.89333 10 9.00667 10 9.12C10 10.4067 11.0467 11.4533 12.3333 11.4533C13.62 11.4533 14.6667 10.4067 14.6667 9.12C14.6667 8.48667 14.4133 7.91333 14 7.49333ZM3.33333 10.12C2.22667 10.12 1.33333 9.22667 1.33333 8.12C1.33333 7.01333 2.22667 6.12 3.33333 6.12C4.44 6.12 5.33333 7.01333 5.33333 8.12C5.33333 9.22667 4.44 10.12 3.33333 10.12ZM6.58 7.45333C6.55333 7.33333 6.52667 7.22 6.49333 7.10667L5.88667 7.33333L5.76667 7.02L6.38667 6.78667H6.66667C8.14 6.78667 9.33333 5.59333 9.33333 4.12V3.45333H12.6667V6.82C12.56 6.80667 12.4467 6.78667 12.3333 6.78667C11.7 6.78667 11.1267 7.04 10.7067 7.45333H6.58ZM12.3333 10.12C11.78 10.12 11.3333 9.67333 11.3333 9.12C11.3333 8.56667 11.78 8.12 12.3333 8.12C12.8867 8.12 13.3333 8.56667 13.3333 9.12C13.3333 9.67333 12.8867 10.12 12.3333 10.12Z" fill="#fff"/>
</svg>
