<svg width="19" height="17" viewBox="0 0 19 17" fill="none" xmlns="http://www.w3.org/2000/svg">
<path d="M14.3198 8.94L5.37982 0L3.96982 1.41L6.34982 3.79L1.19982 8.94C0.609824 9.53 0.609824 10.48 1.19982 11.06L6.69982 16.56C6.98982 16.85 7.37983 17 7.75983 17C8.13983 17 8.52983 16.85 8.81983 16.56L14.3198 11.06C14.9098 10.48 14.9098 9.53 14.3198 8.94ZM2.96982 10L7.75983 5.21L12.5498 10H2.96982ZM16.7598 11.5C16.7598 11.5 14.7598 13.67 14.7598 15C14.7598 16.1 15.6598 17 16.7598 17C17.8598 17 18.7598 16.1 18.7598 15C18.7598 13.67 16.7598 11.5 16.7598 11.5Z" fill="#fff"/>
</svg>
