<svg width="21" height="20" viewBox="0 0 21 20" fill="none" xmlns="http://www.w3.org/2000/svg">
<path d="M10.4758 0C4.95583 0 0.47583 4.48 0.47583 10C0.47583 15.52 4.95583 20 10.4758 20C15.9958 20 20.4758 15.52 20.4758 10C20.4758 4.48 15.9958 0 10.4758 0ZM18.4058 9H11.4758V2.07C15.0858 2.52 17.9558 5.39 18.4058 9ZM2.47583 10C2.47583 5.93 5.53583 2.56 9.47583 2.07V17.93C5.53583 17.44 2.47583 14.07 2.47583 10ZM11.4758 17.93V11H18.4058C17.9558 14.61 15.0858 17.48 11.4758 17.93Z" fill="#fff"/>
</svg>
